<svg width="1853" height="1432" viewBox="0 0 1853 1432" fill="none" xmlns="http://www.w3.org/2000/svg">
    <path fill-rule="evenodd" clip-rule="evenodd" d="M1852.53 355.542L1513.81 1.86574L355.51 0L0 355.542L893.513 1431.52L1852.53 355.542Z" fill="#6EE049"/>
    <path fill-rule="evenodd" clip-rule="evenodd" d="M1700 368.577L1416.96 77.5353L449.07 76L152 368.577L898.633 1254L1700 368.577Z" fill="black"/>
    <path d="M860.621 593.502C860.621 573.467 853.543 556.59 839.388 542.87C825.451 529.15 801.822 516.737 768.503 505.631C722.117 491.476 688.253 473.074 666.912 450.425C645.788 427.559 635.226 398.595 635.226 363.534C635.226 327.819 645.57 298.528 666.258 275.662C687.165 252.796 715.802 239.185 752.17 234.83V163.291H800.842V235.156C837.428 240.165 865.848 255.518 886.101 281.215C906.571 306.913 916.807 342.083 916.807 386.727H856.701C856.701 356.021 849.406 331.63 834.815 313.555C820.224 295.479 800.516 286.442 775.689 286.442C749.774 286.442 729.957 293.193 716.237 306.695C702.518 319.979 695.658 338.599 695.658 362.554C695.658 384.767 702.844 402.515 717.217 415.799C731.808 428.866 755.654 440.843 788.756 451.732C822.075 462.403 847.99 474.271 866.501 487.338C885.229 500.187 898.949 515.213 907.66 532.417C916.589 549.621 921.053 569.765 921.053 592.849C921.053 629.653 909.947 659.27 887.734 681.701C865.739 704.131 834.815 717.416 794.962 721.553V783.945H746.617V721.553C706.111 717.851 674.316 703.478 651.232 678.434C628.366 653.172 616.933 618.982 616.933 575.863H677.365C677.365 606.133 685.313 629.435 701.211 645.768C717.108 662.101 739.648 670.268 768.83 670.268C797.358 670.268 819.789 663.408 836.122 649.688C852.455 635.968 860.621 617.24 860.621 593.502ZM1257.19 765.326H957.966V716H1257.19V765.326Z" fill="#6EE049"/>
</svg>
